<?xml version="1.0" encoding="utf-8"?>
<!-- Generator: Adobe Illustrator 24.1.2, SVG Export Plug-In . SVG Version: 6.00 Build 0)  -->
<svg version="1.1" id="Layer_1" xmlns="http://www.w3.org/2000/svg" xmlns:xlink="http://www.w3.org/1999/xlink" x="0px" y="0px"
	 viewBox="0 0 336.1 65.9" style="enable-background:new 0 0 336.1 65.9;" xml:space="preserve">
<style type="text/css">
	.st0{fill:#CC2F2C;}
	.st1{fill-rule:evenodd;clip-rule:evenodd;fill:#FFFFFF;}
	.st2{fill:#FFFFFF;}
	.st3{enable-background:new    ;}
</style>
<g id="Layer_2_1_">
	<g id="Capa_1">
		<g>
			<rect class="st0" width="65.9" height="65.9"/>
		</g>
		<g>
			<path class="st1" d="M36.7,12.4l-0.6,2.4c-0.3,0.9-0.8,1.4-1.5,1.4h-2.8c0-0.5,0-1.9,0-3.2c0-0.8,0-2.3,0-2.5h3.6V9.3h-3.5V3.6
				h2.2c0.6-0.1,1.2,0.4,1.3,1l0.7,2.5c0.3,0,0.6,0,0.9-0.1V2.9h-9.2v0.7h1.3v12.5h-3.4V3.6h1.4V2.9h-5.6v0.7h1.4v5.7h-4.2V3.6h1.4
				V2.9H3L2.9,7.1c0.3,0,0.6,0.1,0.9,0.1l0.7-2.7C4.7,3.8,5,3.6,5.8,3.6h1.4v12.5H5.3v0.8H12v-0.8h-2V3.6h1.5c0.9,0,1,0.2,1.2,0.9
				l0.7,2.7c0.3,0,0.6-0.1,0.9-0.1V3.6h1.5v12.5h-1.6v0.8H20v-0.8h-1.4v-5.7h4.2v5.7h-1.4v0.8h16l0.2-4.3L36.7,12.4z"/>
		</g>
		<g>
			<path class="st1" d="M13.8,31.9L12.6,32c-1,0.3-2.1,0.6-3.2,0.6c-3.4,0-6.1-2.3-6.1-7c0-3.7,2.3-7.5,6.2-7.5
				c1.4-0.1,2.8,0.2,4,0.8v3.7l-1,0.2c-0.6-2.4-1.2-3.8-3-3.8c-2.4,0-3.2,2.9-3.2,6.2c0,4.9,1.3,6.4,3.2,6.4c0.5,0,1-0.1,1.5-0.3
				v-3.9H9.7v-0.8h4.1L13.8,31.9"/>
		</g>
		<g>
			<path class="st1" d="M14.6,31.6h1.5V19.1h-1.4v-0.8h5.8v0.8h-1.6c0,11,0,12.4-0.1,12.5h2c0.8,0,1.2-0.4,1.5-1.4l0.8-2.4
				c0.3,0,0.5,0,0.9,0.1l-0.3,4.5h-9.1L14.6,31.6"/>
		</g>
		<g>
			<path class="st1" d="M32.7,25.4c0-5.6-1.7-6.3-2.8-6.3c-1.6,0-2.8,1.5-2.8,6.2c0,5.2,1.5,6.3,2.8,6.3
				C31.3,31.6,32.7,30.3,32.7,25.4z M24.1,25.5c0-4,1.8-7.4,5.8-7.4c3.6,0,5.8,2.6,5.8,7.1c0,4-1.8,7.4-5.8,7.4
				C26.5,32.6,24.1,30.2,24.1,25.5z"/>
		</g>
		<g>
			<path class="st1" d="M42,25.5h-1.6v5.6c0,0.3,0,0.5,0.2,0.5H42c1,0,1.8-0.5,1.8-3C43.8,26.9,43.4,25.5,42,25.5z M40.4,24.7h1.7
				c1,0,1.5-1.2,1.5-2.5c0-2.2-0.8-3.1-1.8-3.1h-1.4V24.7z M42,32.3h-5.9v-0.8h1.5V19.1h-1.5v-0.8h5.8c2.9,0,4.5,1.4,4.5,3.6
				c-0.2,1.5-1.3,2.7-2.7,3.1v0.1c1.7,0.3,2.9,1.8,3,3.5C46.6,30.8,44.9,32.3,42,32.3z"/>
		</g>
		<g>
			<path class="st1" d="M57.2,28L57,32.3H46.9v-0.8h1.8V19.1h-1.3v-0.8h9.2v4.1c-0.3,0-0.6,0-0.9,0.1L55,20.1
				c-0.1-0.6-0.7-1.1-1.3-1h-2.2v5.7h3.6V26h-3.6c0,0.2,0,1.7,0,2.5c0,1.3,0,2.7,0,3.2h2.8c0.7,0,1.2-0.5,1.5-1.4l0.6-2.4L57.2,28"
				/>
		</g>
		<g>
			<path class="st1" d="M31.5,33.7H22v0.7c1.5,0,1.7,0.4,1.7,1.2v7c-1.8-3-3.5-5.9-5.3-8.9h-3.7v0.7c0.6,0.2,1,0.6,1.4,1.1v10.1
				c0,1.2-0.6,1.4-1.2,1.4h-1.1l-4-13.3h-2c-0.5,2.1-3.6,11.7-3.6,11.7C4,46.3,3.5,47,2.6,47l0,0v0.7H7V47H6.9
				c-1.2-0.1-1.6-0.1-1.6-1c0-0.3,0-0.7,0.1-1l0.7-2.5h3.3l1.3,4.5H9.3v0.7H19V47c-1.7,0-1.8-0.5-1.8-1.4V37
				c2.1,3.6,4.2,7.2,6.4,10.8h1.1V35.6c0-0.9,0.5-1.1,1.6-1.2h1.4V47h-1.5v0.7h5.6c4.1,0,6.4-3.2,6.4-7.2c0.2-3.6-2.5-6.6-6-6.8
				C31.9,33.7,31.7,33.7,31.5,33.7z M6.4,41.7l1.5-5.2l1.5,5.2H6.4z M30.9,47c-0.3,0-0.5-0.2-0.5-0.6V34.5c3,0,4.5,1.9,4.5,6.2
				S33.7,47,30.9,47z"/>
		</g>
		<g>
			<path class="st1" d="M35.3,49.9v-0.8h-5.6v0.8H31v12.5h-2.1l-4-13.3h-2c-0.5,2.1-3.6,11.7-3.6,11.7c-0.3,0.8-0.7,1.5-1.4,1.6
				h-1.1L16,49.9h1.6v-0.8h-4.3l-2.6,7.5c-0.9-2.5-1.8-5-2.6-7.5H3.5v0.8c1.4,0,1.5,0.2,1.5,1.6v0.1c-0.1,2.5-0.4,7.1-0.6,9.7
				c0,0.6-0.5,1-1.8,1.1v0.7h4.9v-0.7c-1.8,0-2-0.6-2-1.1c0-0.2,0.1-2.1,0.1-3.8c0.1-2.4,0.2-4,0.2-6.5v0.1
				c1.2,3.4,2.4,6.8,3.6,10.1L9.9,61c1.1-3.2,2.3-6.2,3.5-9.3l0.5,10.7h-1.4v0.8H22v-0.8l0,0c-1.2-0.1-1.6-0.1-1.6-1
				c0-0.3,0-0.7,0.1-1l0.7-2.5h3.4l1.3,4.5h-1.6v0.8h11v-0.8H34V49.9H35.3z M21.4,57.2l1.5-5.2l1.5,5.2H21.4z"/>
		</g>
		<g>
			<path class="st1" d="M44.6,58.6L43.8,61c-0.3,1-0.7,1.4-1.5,1.4h-2c0.1-0.1,0.1-1.5,0.1-12.5h1.5v-0.8H36v0.8h1.4v12.5H36v0.8
				h9.1l0.3-4.5C45.1,58.7,44.9,58.7,44.6,58.6"/>
		</g>
		<g>
			<path class="st1" d="M48.1,56.8c-0.1,0-0.2,0-0.3,0.1c0,0,0,0,0,0.1s0,0.2,0.2,0.3h0.1c0.5,0,1.1-0.8,1.5-1.4
				c0.2-0.3,0.2-0.4,0.3-0.4s0.2,0,0.3,0.2c0.6,0.8,1.6,1.2,2.5,1.1c0-0.1-0.2-0.2-0.3-0.3c0,0-0.5-0.4,0.2-0.6s1,0.1,1.6-0.4
				c0-0.2-0.3-0.2-0.3-0.2s-0.4-0.2,0.8-0.6c0.6-0.2,0.6-0.2,0.5-0.3s-0.4-0.2,0-0.5s0.7-0.6,0.7-0.8s-0.3-0.1-0.5,0
				c-0.3,0.1-0.6,0-0.8-0.2c-0.2-0.3-0.4-0.2-0.6,0s-0.7,0.4-0.9,0s-0.1-0.3,0.3-1c0.2-0.4,0.4-0.8,0.4-1.2c0-0.1,0-0.2-0.4,0
				S53,49.4,53,49.2c0,0,0-0.4-0.2,0c-0.3,0.4-0.7,0.7-1.1,1c-0.2,0.1-0.6-0.1-0.5-0.4s-0.2-0.2-0.3,0c-0.2,0.7-0.5,1.3-0.7,2
				c-0.1,0.1-0.2,0.3-0.5-0.1s-0.6-1.4-1-0.9c-0.1-0.1-0.8-1-1.3-1c-0.1,0.1,0,0.3,0.2,0.4c0.1,0.2,0.1,0.5,0,0.7
				c-0.1,0.3-0.1,0.6,0,0.9c0.1,0.2,0,0.4-0.5,0.5s-0.4,0.2-0.2,0.4s0.8,0.8,1,1s0,0.4-0.3,0.5S47,54,46.9,54.1s0.2,0.1,0.3,0.2
				s0.6,1,1.3,0.9s0.8,0,0.7,0.3S48.6,56.8,48.1,56.8"/>
		</g>
		<g>
			<rect x="90.6" y="8.3" class="st2" width="1.2" height="50.9"/>
		</g>
		<g class="st3">
			<path class="st2" d="M127.1,44.7l-2.2,0.1c-1.7,0.6-4.2,1-5.9,1c-7.8,0-10.5-5.9-10.5-11.7c0-5.9,3.5-12.7,10.5-12.7
				c3.4,0,5.9,1.4,6.8,1.7v5.7l-1.6,0.2c-1.5-4.1-2.3-6.3-5.1-6.3c-3.5,0-5.1,4.7-5.1,10c0,7.7,2.6,11.3,6.3,11.3
				c0.7,0,1.6-0.1,2.3-0.2v-6.3l-2.9-0.9v-0.8h7.8v8.7H127.1z"/>
		</g>
		<g class="st3">
			<path class="st2" d="M136.7,43.8l2.4,0.7v0.8h-9.4v-0.8l2.3-0.7V23H130v-1.4l6.9-1.3v23.4H136.7z"/>
		</g>
		<g class="st3">
			<path class="st2" d="M148.9,46c-5.7,0-8.5-4.2-8.5-8.9c0-4.5,2.9-9.6,8.6-9.6s8.5,4.1,8.5,8.9C157.6,41,154.6,46,148.9,46z
				 M148.9,28.9c-2.6,0-3.5,2.9-3.5,7.9c0,4.7,1,7.6,3.6,7.6c2.6,0,3.5-2.9,3.5-7.8C152.6,32,151.4,28.9,148.9,28.9z"/>
			<path class="st2" d="M158.6,23v-1.4l7-1.3v10.4c1.3-1.4,3.4-3.3,5.9-3.3c3.5,0,5.6,3.8,5.6,8.5c0,4.8-2.7,9.9-9.1,9.9
				c-1.3,0-3.4-0.2-5.6-1l-0.6,1l-1.2-0.3V23H158.6z M165.6,32.3v11.3c0.7,0.6,1.7,0.8,2.7,0.8c2.6,0,4-3,4-7.5
				c0-3.8-1.4-6.6-3.4-6.6C167.9,30.3,166.7,31.4,165.6,32.3z"/>
			<path class="st2" d="M187.4,45.9c-4,0-7.7-2.7-7.7-8.4c0-5.2,3.5-10,8.4-10c4.2,0,6.6,3,6.6,7.1l-3.7,0.6c-2.3,0-4.8,0-7.2-0.1
				c0,5.2,2.4,7.8,5.8,7.8c1.4,0,2.9-0.3,4.5-1.2l0.6,0.9C192.7,44.8,190,45.9,187.4,45.9z M190.1,33.3c0-3-1-4.2-2.6-4.2
				c-1.9,0-3.4,1.7-3.7,4.8l6.3-0.1V33.3z"/>
		</g>
		<g class="st3">
			<path class="st2" d="M223.9,42.6c-2.6,2.3-5.4,3.3-8.2,3.3c-5.7,0-9.9-4.7-9.9-11.5c0-5.9,3.8-12.8,10.8-12.8
				c3.4,0,5.8,1.4,6.6,1.7v5.7l-1.6,0.2c-1.5-4.1-2.2-6.3-5-6.3c-3.5,0-5.5,4.8-5.5,10.1c0,6.4,3.1,10.1,7.1,10.1
				c1.5,0,3.3-0.6,4.9-1.7L223.9,42.6z"/>
		</g>
		<g class="st3">
			<path class="st2" d="M234.7,35.9c0-3.8-0.3-6.5-2.4-6.5c-1.9,0-4.1,3.7-4.3,3.8l-1.3-0.5v-3.1c1.9-0.8,5-2.2,7.6-2.2
				c4.3,0,5.1,3.5,5.1,7.9v8.3l2.2,0.6v0.9l-6.9,0.5v-2.8c-1.5,1.5-3.1,2.9-5.2,2.9c-2.4,0-4.3-1.6-4.3-4.1c0-3.7,3.7-4.7,9.4-5.2
				v-0.5H234.7z M233.6,37.8c-2.8,0-3.8,0.8-3.8,2.9c0,1,0.5,2.8,1.9,2.8c0.8,0,2-0.6,3-1.9v-3.8C234.7,37.8,233.6,37.8,233.6,37.8z
				"/>
			<path class="st2" d="M249.6,30.8c1.5-1.5,3.7-3.3,5.8-3.3c2.1,0,3.8,1.3,4.4,3.4c1.6-1.7,3.7-3.4,6.1-3.4c2.8,0,5,2,5,5.9v10.4
				l2.3,0.7v0.8h-9.1v-0.8l2.1-0.7v-9.3c0-3.7-1.7-4.1-2.4-4.1c-0.8,0-2.1,0.7-3.4,1.7v11.7l2.1,0.7v0.8h-9v-0.8l2.1-0.7v-9.3
				c0-3.7-1.7-4.1-2.4-4.1c-0.8,0-2.1,0.7-3.4,1.9v11.5l2.2,0.7v0.8h-9.2v-0.8l2.2-0.7V30.2h-2.3v-1.4l6.8-1.4L249.6,30.8z"/>
			<path class="st2" d="M292.6,35.5c0,5.6-3.4,10-9.1,10c-0.3,0-1.4-0.1-2.4-0.2v4.3l2.9,0.7v0.8h-9.9v-0.8l2.2-0.7V30.2h-1.9v-1.4
				l6.4-1.4l0.1,3c1.4-1.4,3.6-2.9,5.7-2.9C290.5,27.6,292.6,31.2,292.6,35.5z M284.2,30.2c-1,0-2.2,0.8-3.1,1.6v11.3
				c0.9,0.6,1.9,0.8,2.9,0.8c2.8,0,3.8-2.7,3.8-6.9S286.4,30.2,284.2,30.2z"/>
			<path class="st2" d="M314.1,44.3v0.8l-6.8,0.5l-0.1-2.9c-1.6,1.9-3.8,3.1-6.1,3.1c-2.8,0-4.7-2-4.7-5.7V29.8l-2.1-0.2v-1.3
				l6.9-0.3v11.4c0,3.7,1.6,3.8,2.3,3.8c0.9,0,1.9-0.3,3.5-1.7V29.8l-2.6-0.2v-1.3l7.3-0.3V44L314.1,44.3z"/>
			<path class="st2" d="M321.5,46c-2.2,0-4.2-0.6-5.9-1.7V40l1.3-0.2c0.9,2.7,2.3,4.8,4.9,4.8c1.5,0,2.7-0.9,2.7-2.3
				c0-1-0.7-1.6-2.1-2.4c-1.4-0.8-3.6-1.7-5-2.8c-1-0.8-1.7-2.2-1.7-3.7c0-3,2.3-5.6,6.2-5.6c2.1,0,4,0.5,5.2,1.3V33l-1.3,0.3
				l-0.3-0.7c-1.2-2.3-2.3-3.5-3.8-3.5c-1.2,0-2.4,0.8-2.4,2.2s1.2,2.1,2.3,2.8c0.9,0.6,2.3,1.3,3.5,2c2,1,3.3,2.3,3.3,4.5
				C328.3,43.6,325.2,46,321.5,46z"/>
		</g>
	</g>
</g>
</svg>
