<?xml version="1.0" encoding="utf-8"?>
<!-- Generator: Adobe Illustrator 24.1.2, SVG Export Plug-In . SVG Version: 6.00 Build 0)  -->
<svg version="1.1" id="Layer_1" xmlns="http://www.w3.org/2000/svg" xmlns:xlink="http://www.w3.org/1999/xlink" x="0px" y="0px"
	 viewBox="0 0 512 512" style="enable-background:new 0 0 512 512;" xml:space="preserve">
<style type="text/css">
	.st0{fill:#CC2B29;}
</style>
<path class="st0" d="M402.2,352.3c-5.3-1.4-10.8,1.7-12.2,7.1c-1.4,5.3,1.7,10.8,7.1,12.2c5.3,1.4,10.8-1.7,12.2-7.1
	C410.7,359.2,407.6,353.7,402.2,352.3z"/>
<path class="st0" d="M114.9,371.6c5.3-1.4,8.5-6.9,7.1-12.2c-1.4-5.3-6.9-8.5-12.2-7.1c-5.3,1.4-8.5,6.9-7.1,12.2
	C104.1,369.9,109.6,373,114.9,371.6z"/>
<path class="st0" d="M500.6,339.8c7.5-24.8,11.2-48.1,11.2-71c0-66.4-27.1-129.2-76.3-176.7C387.6,45.7,323.3,19,256,19
	C118.2,19,0.2,130.5,0.2,268.8c0,22.9,3.7,46.2,11.2,71C2.3,347-2.1,359.3,1,371.1l25.9,96.5c4.2,15.9,20.6,25.5,36.7,21.2l30.6-8.2
	c7,10.2,19.9,15.3,32.5,12l38.6-10.4c16-4.3,25.5-20.7,21.2-36.7l-36.2-135.1c-4.3-16-20.8-25.5-36.7-21.2l-38.6,10.3
	c-4.1,1.1-7.7,3-10.8,5.4c-2-9.3-3.2-18.5-3.7-27.6c11.1-3.5,19.4-13.2,20.5-25.2c8.2-84.5,86.8-153.2,175-153.2
	s166.8,68.7,175,153.2c1.2,12,9.5,21.7,20.5,25.2c-0.5,9.1-1.7,18.3-3.7,27.6c-3.1-2.5-6.8-4.3-10.8-5.4l-38.6-10.3
	c-16-4.3-32.4,5.2-36.7,21.2l-36.2,135.1c-4.3,16,5.2,32.4,21.2,36.7l38.6,10.4c12.5,3.3,25.4-1.8,32.5-12l30.6,8.2
	c16.2,4.3,32.5-5.4,36.7-21.2l25.9-96.5C514.1,359.2,509.7,347,500.6,339.8z M80.1,318.9l38.6-10.3c5.3-1.4,10.8,1.7,12.2,7.1
	l36.2,135.1c1.4,5.3-1.7,10.8-7.1,12.2l-9.7,2.6L132.3,398c-1.4-5.3-6.9-8.5-12.2-7.1c-5.3,1.4-8.5,6.9-7.1,12.2l18.1,67.6l-9.6,2.6
	c-5.3,1.4-10.8-1.8-12.2-7.1c0,0,0,0,0,0L73,331.1C71.6,325.8,74.8,320.3,80.1,318.9z M87.4,461.7l-28.9,7.8
	c-5.3,1.4-10.8-1.7-12.2-7.1l-25.9-96.5c-1.3-5,1.4-10.3,6.4-12c0.2-0.1,0.5-0.2,0.6-0.2l28.5-7.7C58.8,353.3,53.5,336.6,87.4,461.7
	z M20.5,278.8h20c0.9,15.9,3.8,32.1,8.8,48.4l-19.2,5.2C24.5,313.6,21.4,296,20.5,278.8z M450.9,250.2
	C441.5,153.4,353.6,78.9,256,78.9c-97.7,0-185.5,74.5-194.9,171.3c-0.5,4.8-4.8,8.6-9.8,8.6H20.5C26,138.6,131.6,39,256,39
	c124.4,0,230,99.7,235.5,219.8h-30.8C455.7,258.8,451.4,255,450.9,250.2z M491.5,278.8c-0.9,17.2-4,34.9-9.6,53.5l-19.2-5.1
	c5-16.3,7.9-32.4,8.8-48.4H491.5z M402.8,466.2C402.8,466.2,402.8,466.2,402.8,466.2c-1.4,5.3-6.9,8.5-12.2,7.1l-9.7-2.6l18.1-67.6
	c1.4-5.3-1.7-10.8-7.1-12.2c-5.3-1.4-10.8,1.7-12.2,7.1l-18.1,67.6l-9.6-2.6c-5.3-1.4-8.5-6.9-7.1-12.2L381,315.6
	c1.2-4.5,5.2-7.4,9.7-7.4c0.9,0,1.7,0.1,2.6,0.3l38.6,10.3c5.3,1.4,8.5,6.9,7.1,12.2L402.8,466.2z M491.7,365.9l-25.9,96.5
	c-1.4,5.4-6.9,8.5-12.2,7.1l-29-7.8c33.9-125.1,28.5-108.4,31.4-115.7c30.4,8.2,28.6,7.7,29.3,7.9
	C490.2,355.6,493,360.9,491.7,365.9z"/>
</svg>
