<?xml version="1.0" encoding="utf-8"?>
<!-- Generator: Adobe Illustrator 24.1.2, SVG Export Plug-In . SVG Version: 6.00 Build 0)  -->
<svg version="1.1" id="Capa_1" xmlns="http://www.w3.org/2000/svg" xmlns:xlink="http://www.w3.org/1999/xlink" x="0px" y="0px"
	 viewBox="0 0 512 512" style="enable-background:new 0 0 512 512;" xml:space="preserve">
<style type="text/css">
	.st0{fill:#CC2B29;}
</style>
<g>
	<path class="st0" d="M408,0H104C79.8,0,60.1,19.7,60.1,43.9v26.4c0,4.1,3.4,7.5,7.5,7.5c4.1,0,7.5-3.4,7.5-7.5V43.9
		C75.1,28,88.1,15,104,15h304c15.9,0,28.9,13,28.9,28.9v424.2c0,15.9-13,28.9-28.9,28.9H104c-15.9,0-28.9-13-28.9-28.9V100.3
		c0-4.1-3.4-7.5-7.5-7.5c-4.1,0-7.5,3.4-7.5,7.5v367.8c0,24.2,19.7,43.9,43.9,43.9h304c24.2,0,43.9-19.7,43.9-43.9V43.9
		C451.9,19.7,432.2,0,408,0z"/>
	<path class="st0" d="M90,61.4v283.3c0,4.1,3.4,7.5,7.5,7.5c4.1,0,7.5-3.4,7.5-7.5V68.9H407v102.8c0,4.1,3.4,7.5,7.5,7.5
		c4.1,0,7.5-3.4,7.5-7.5V61.4c0-4.1-3.4-7.5-7.5-7.5H97.5C93.3,53.9,90,57.3,90,61.4z"/>
	<path class="st0" d="M90,431.9c0,4.1,3.4,7.5,7.5,7.5h317.1c4.1,0,7.5-3.4,7.5-7.5V201.8c0-4.1-3.4-7.5-7.5-7.5
		c-4.1,0-7.5,3.4-7.5,7.5v222.7H105v-49.7c0-4.1-3.4-7.5-7.5-7.5c-4.1,0-7.5,3.4-7.5,7.5C90,374.8,90,431.9,90,431.9z"/>
	<path class="st0" d="M233.2,466.4c0,12.6,10.2,22.8,22.8,22.8c12.6,0,22.8-10.2,22.8-22.8c0-12.6-10.2-22.8-22.8-22.8
		C243.4,443.6,233.2,453.9,233.2,466.4z M263.8,466.4c0,4.3-3.5,7.8-7.8,7.8c-4.3,0-7.8-3.5-7.8-7.8c0-4.3,3.5-7.8,7.8-7.8
		C260.3,458.6,263.8,462.1,263.8,466.4z"/>
	<path class="st0" d="M288.4,41.8c4.1,0,7.5-3.4,7.5-7.5c0-4.1-3.4-7.5-7.5-7.5h-34.2c-4.1,0-7.5,3.4-7.5,7.5c0,4.1,3.4,7.5,7.5,7.5
		H288.4z"/>
	<circle class="st0" cx="225.6" cy="34.3" r="7.5"/>
</g>
<g>
	<g>
		<g>
			<path class="st0" d="M369.4,136H254.7c-4.4,0-8,3.6-8,8s3.6,8,8,8h114.7c4.4,0,8-3.6,8-8S373.7,136,369.4,136z"/>
		</g>
	</g>
	<g>
		<g>
			<path class="st0" d="M341.5,176.6c-1.5-1.5-3.5-2.3-5.7-2.3c-2.1,0-4.1,0.9-5.7,2.3c-1.5,1.5-2.3,3.5-2.3,5.7s0.9,4.1,2.3,5.7
				s3.5,2.3,5.7,2.3c2.1,0,4.1-0.9,5.7-2.3c1.5-1.5,2.3-3.5,2.3-5.7S343,178.1,341.5,176.6z"/>
		</g>
	</g>
	<g>
		<g>
			<path class="st0" d="M302.4,174.3h-47.7c-4.4,0-8,3.6-8,8s3.6,8,8,8h47.7c4.4,0,8-3.6,8-8S306.8,174.3,302.4,174.3z"/>
		</g>
	</g>
	<g>
		<g>
			<path class="st0" d="M369.4,222H254.7c-4.4,0-8,3.6-8,8s3.6,8,8,8h114.7c4.4,0,8-3.6,8-8S373.7,222,369.4,222z"/>
		</g>
	</g>
	<g>
		<g>
			<path class="st0" d="M341.5,262.6c-1.5-1.5-3.5-2.3-5.7-2.3c-2.1,0-4.1,0.9-5.7,2.3c-1.5,1.5-2.3,3.5-2.3,5.7s0.9,4.1,2.3,5.7
				c1.4,1.5,3.5,2.3,5.7,2.3c2.1,0,4.1-0.9,5.7-2.3c1.5-1.5,2.3-3.5,2.3-5.7S343,264.1,341.5,262.6z"/>
		</g>
	</g>
	<g>
		<g>
			<path class="st0" d="M302.4,260.2h-47.7c-4.4,0-8,3.6-8,8s3.6,8,8,8h47.7c4.4,0,8-3.6,8-8S306.8,260.2,302.4,260.2z"/>
		</g>
	</g>
	<g>
		<g>
			<path class="st0" d="M369.4,308H254.7c-4.4,0-8,3.6-8,8s3.6,8,8,8h114.7c4.4,0,8-3.6,8-8S373.7,308,369.4,308z"/>
		</g>
	</g>
	<g>
		<g>
			<path class="st0" d="M341.5,348.5c-1.5-1.5-3.5-2.3-5.7-2.3c-2.1,0-4.1,0.9-5.7,2.3c-1.5,1.5-2.3,3.5-2.3,5.7
				c0,2.1,0.9,4.1,2.3,5.7s3.5,2.3,5.7,2.3c2.1,0,4.1-0.9,5.7-2.3c1.5-1.5,2.3-3.5,2.3-5.7C343.8,352,343,350.1,341.5,348.5z"/>
		</g>
	</g>
	<g>
		<g>
			<path class="st0" d="M302.4,346.2h-47.7c-4.4,0-8,3.6-8,8c0,4.4,3.6,8,8,8h47.7c4.4,0,8-3.6,8-8
				C310.4,349.8,306.8,346.2,302.4,346.2z"/>
		</g>
	</g>
	<g>
		<g>
			<path class="st0" d="M204.1,134.1c-3.1-3.1-8.1-3.1-11.2,0l-34.1,34.1l-10.5-10.5c-3.1-3.1-8.1-3.1-11.2,0
				c-3.1,3.1-3.1,8.1,0,11.2l16.1,16.1c1.6,1.6,3.6,2.3,5.7,2.3s4.1-0.8,5.7-2.3l39.7-39.7C207.2,142.2,207.2,137.2,204.1,134.1z"/>
		</g>
	</g>
	<g>
		<g>
			<path class="st0" d="M184.6,308h-38.2c-4.4,0-8,3.6-8,8v38.2c0,4.4,3.6,8,8,8h38.2c4.4,0,8-3.6,8-8V316
				C192.6,311.6,189,308,184.6,308z M176.7,346.2h-22.3v-22.3h22.3V346.2z"/>
		</g>
	</g>
	<g>
		<g>
			<path class="st0" d="M184.6,222h-38.2c-4.4,0-8,3.6-8,8v38.2c0,4.4,3.6,8,8,8h38.2c4.4,0,8-3.6,8-8V230
				C192.6,225.6,189,222,184.6,222z M176.7,260.2h-22.3V238h22.3V260.2z"/>
		</g>
	</g>
</g>
</svg>
