<?xml version="1.0" encoding="utf-8"?>
<!-- Generator: Adobe Illustrator 24.1.2, SVG Export Plug-In . SVG Version: 6.00 Build 0)  -->
<svg version="1.1" id="Layer_1" xmlns="http://www.w3.org/2000/svg" xmlns:xlink="http://www.w3.org/1999/xlink" x="0px" y="0px"
	 viewBox="0 0 394 394" style="enable-background:new 0 0 394 394;" xml:space="preserve">
<style type="text/css">
	.st0{fill:#CC2B29;}
</style>
<path class="st0" d="M306,210.5c0-3.8-3-6.8-6.8-6.8s-6.8,3.1-6.8,6.8c0,45.3-31.2,83.7-75,93.2v-20.8c35.2-9.1,61.3-41.2,61.3-79.2
	V101.4c0-45.1-36.7-81.8-81.8-81.8c-45.1,0-81.8,36.7-81.8,81.8v102.2c0,38,26.1,70.1,61.3,79.2v20.8c-43.7-9.5-75-47.9-75-93.2
	c0-3.8-3-6.8-6.8-6.8c-3.8,0-6.8,3-6.8,6.8c0,52.8,37.1,97.4,88.6,107.1v15.6h-27.3c-18.8,0-34.1,15.3-34.1,34.1
	c0,3.8,3,6.8,6.8,6.8H272c3.8,0,6.8-3,6.8-6.8c0-18.8-15.3-34.1-34.1-34.1h-27.3v-15.6C269,307.8,306,263.3,306,210.5z M129.2,210.5
	h33.7c3.8,0,6.8-3.1,6.8-6.8s-3-6.8-6.8-6.8h-34.1v-20.4h34.1c3.8,0,6.8-3.1,6.8-6.8s-3-6.8-6.8-6.8h-34.1v-20.4h34.1
	c3.8,0,6.8-3.1,6.8-6.8s-3-6.8-6.8-6.8h-34.1v-20.4h34.1c3.8,0,6.8-3,6.8-6.8s-3-6.8-6.8-6.8h-33.7c3.4-34.4,32.5-61.3,67.8-61.3
	s64.4,26.9,67.8,61.3h-33.7c-3.8,0-6.8,3.1-6.8,6.8s3,6.8,6.8,6.8h34.1v20.4h-34.1c-3.8,0-6.8,3.1-6.8,6.8s3,6.8,6.8,6.8h34.1v20.4
	h-34.1c-3.8,0-6.8,3.1-6.8,6.8s3,6.8,6.8,6.8h34.1v20.4h-34.1c-3.8,0-6.8,3-6.8,6.8s3,6.8,6.8,6.8h33.7c-3,30.3-26,54.8-55.5,60.2h0
	c-4,0.7-8.1,1.1-12.3,1.1C161.7,271.8,132.6,244.8,129.2,210.5z M244.7,346.7c8.9,0,16.5,5.7,19.3,13.6H130
	c2.8-7.9,10.4-13.6,19.3-13.6h34.1c3.8,0,6.8-3,6.8-6.8v-54.8c2.2,0.2,4.5,0.3,6.8,0.3c2.3,0,4.6-0.1,6.8-0.3v54.8
	c0,3.8,3,6.8,6.8,6.8H244.7z"/>
</svg>
