<?xml version="1.0" encoding="utf-8"?>
<!-- Generator: Adobe Illustrator 24.1.2, SVG Export Plug-In . SVG Version: 6.00 Build 0)  -->
<svg version="1.1" id="Layer_1" xmlns="http://www.w3.org/2000/svg" xmlns:xlink="http://www.w3.org/1999/xlink" x="0px" y="0px"
	 viewBox="0 0 100 104.7" style="enable-background:new 0 0 100 104.7;" xml:space="preserve">
<style type="text/css">
	.st0{fill:#CC2B29;}
</style>
<g>
	<rect x="35.3" y="69" class="st0" width="47.3" height="4.7"/>
	<rect x="35.3" y="78.4" class="st0" width="47.3" height="4.7"/>
	<path class="st0" d="M57.3,63.4c4.9,0,8.2-0.5,12.4-2.3l-1.2-4.3c-2.7,1.3-6.4,1.9-9.6,1.9c-10,0-17.1-6-17.1-17.3
		c0-12.4,8.8-20.1,18.9-20.1c10.3,0,15.8,6.6,15.8,14.9c0,7.7-3.5,11-6.1,10.8c-1.7-0.1-2.1-1.7-1.5-5.1l1.9-12.5
		c-1.6-0.9-5.3-1.7-8.3-1.7c-9.8,0-15.6,7.2-15.6,15.4c0,5.6,3.1,8.9,7.6,8.9c3.3,0,6.3-1.7,8.2-4.9h0.2c0.5,3.2,2.7,4.9,6,4.9
		c7.6,0,13-6.3,13-16c0-11.2-8.7-19.3-20.5-19.3c-15.2,0-25.3,11.8-25.3,25.4C36.1,55.4,46.2,63.4,57.3,63.4z M62,39.8
		c-0.5,3.7-2.7,6.1-4.6,6.1c-1.9,0-2.8-1.3-2.8-3.7c0-4.5,2.9-8.4,6.6-8.4c0.5,0,1.1,0.1,1.5,0.2L62,39.8z"/>
	<path class="st0" d="M88,6.3H30c-3.9,0-7.1,3.2-7.1,7.1l0,5.4h-11c-3.9,0-7,3.1-7,7l0,51.1c0,9.4,2,15.5,11.2,16.5l0,0.1l1.6,0.2
		l63.2,0c14.2,0,14.2-14.3,14.2-20.4V13.4C95.1,9.5,91.9,6.3,88,6.3z M9.1,76.9l0-51.1c0-1.6,1.3-2.8,2.8-2.8h11l0,12.6h-7.4v4.7
		h7.4l0,5.3h-7.4v4.7h7.4l0,5.3h-7.4v4.7h7.4v5.3h-7.4v4.7h7.4v2.7c0,0.9,0,1.8,0,2.6h-7.4v4.7h7.3c-0.4,6.4-1.6,8.6-5.5,8.9
		C10.8,89,9.1,86.2,9.1,76.9z M90.9,73.3c0,11.7-2.8,16.2-10,16.2H24.7c2.3-3.8,2.3-9.8,2.3-16.4l0-59.7c0-1.6,1.3-3,3-3H88
		c1.6,0,3,1.3,3,3C90.9,13.4,90.9,73.3,90.9,73.3z"/>
</g>
</svg>
