<?xml version="1.0" encoding="utf-8"?>
<!-- Generator: Adobe Illustrator 24.1.2, SVG Export Plug-In . SVG Version: 6.00 Build 0)  -->
<svg version="1.1" id="Capa_1" xmlns="http://www.w3.org/2000/svg" xmlns:xlink="http://www.w3.org/1999/xlink" x="0px" y="0px"
	 viewBox="0 0 512 512" style="enable-background:new 0 0 512 512;" xml:space="preserve">
<style type="text/css">
	.st0{fill:#CC2B29;}
</style>
<g>
	<path class="st0" d="M186,286v126c0,5.5,4.5,10,10,10s10-4.5,10-10V286c0-5.5-4.5-10-10-10S186,280.5,186,286z"/>
	<path class="st0" d="M266,286c0-5.5-4.5-10-10-10s-10,4.5-10,10v126c0,5.5,4.5,10,10,10s10-4.5,10-10V286z"/>
	<path class="st0" d="M326,412V286c0-5.5-4.5-10-10-10s-10,4.5-10,10v126c0,5.5,4.5,10,10,10S326,417.5,326,412z"/>
	<circle class="st0" cx="256" cy="502" r="10"/>
	<path class="st0" d="M436,512c5.5,0,10-4.5,10-10s-4.5-10-10-10h-50V206h20c3.8,0,7.2-2.1,8.9-5.5l30-60c1.5-3.1,1.4-6.8-0.4-9.7
		s-5-4.7-8.5-4.7H176V46.2L230.5,19c4.9-2.5,6.9-8.5,4.5-13.4c-2.5-4.9-8.5-6.9-13.4-4.5l-60,30c-3.4,1.7-5.5,5.2-5.5,8.9v86H76
		c-3.5,0-6.7,1.8-8.5,4.7s-2,6.6-0.4,9.7l30,60c1.7,3.4,5.2,5.5,8.9,5.5h20v286H76c-5.5,0-10,4.5-10,10s4.5,10,10,10h135
		c5.5,0,10-4.5,10-10s-4.5-10-10-10h-65V206h220v286h-65c-5.5,0-10,4.5-10,10s4.5,10,10,10H436L436,512z M92.2,146h327.6l-20,40
		H112.2L92.2,146z"/>
</g>
</svg>
