<svg xmlns="http://www.w3.org/2000/svg" viewBox="0 0 280.87 119.97"><defs><style>.cls-1{fill:#cc2923;}.cls-2{fill:#fff;fill-rule:evenodd;}</style></defs><g id="Layer_2" data-name="Layer 2"><g id="Layer_1-2" data-name="Layer 1"><polyline class="cls-1" points="0 119.54 119.11 119.54 119.11 0.44 0 0.44 0 119.54"/><path class="cls-2" d="M58,60.91H41.12v1.31c2.59,0,3,.68,3,2v12.2C41,71.26,37.92,66.12,34.82,60.91H28.37v1.16A5.18,5.18,0,0,1,30.81,64V81.68c0,2.1-1.1,2.39-2.23,2.43h-1.2l-7.14-23.2H16.85c-.92,3.7-6.31,20.37-6.31,20.37-.51,1.56-1.35,2.86-2.95,2.86h0V85.4h7.84V84.11h-.22c-2.15-.18-2.81-.22-2.81-1.78a8.8,8.8,0,0,1,.18-1.73l1.28-4.42h5.94l2.3,7.93h-2.7v1.3h16.4V84.14c-3-.07-3.2-.91-3.2-2.42V66.56c3.79,6.29,7.51,12.59,11.33,18.85h1.94V64.24c0-1.59,1-2,2.76-2h2.52V84.11H48.38v1.3h9.91c7.22,0,11.41-5.68,11.41-12.56S64.93,60.91,58,60.91Zm-43.78,14,2.59-9,2.59,9ZM57,84.11c-.59,0-.84-.4-.84-1.09V62.22c5.21,0,8,3.25,8,10.92C64.13,81.06,61.9,84.11,57,84.11Z"/><path class="cls-2" d="M96.66,94.79c.74-.48,1.22-1.13,1.18-1.35s-.44-.13-.83.09a1,1,0,0,1-1.31-.39c-.3-.48-.62-.39-1-.08s-1.18.73-1.53,0-.13-.61.48-1.74a5.65,5.65,0,0,0,.74-2.21c0-.18-.08-.27-.65,0s-.53-2.3-.57-2.65c0,0,0-.66-.39-.09a8.4,8.4,0,0,1-1.93,1.69.68.68,0,0,1-.87-.69c0-.48-.31-.3-.44,0s-1,3.25-1.26,3.43-.4.61-.79-.13S86.4,88.18,85.76,89c-.18-.16-1.3-1.67-2.21-1.71-.14.17.08.61.26.73a1.6,1.6,0,0,1,0,1.26,2,2,0,0,0,0,1.52c.13.26,0,.69-.79.78s-.61.3-.3.69,1.44,1.35,1.7,1.69,0,.79-.57.83-1-.13-1.13.18.39.17.57.43c0,0,1,1.73,2.23,1.65s1.32.08,1.18.61-1.15,1.93-2.1,2a.36.36,0,0,0-.48.35.56.56,0,0,0,.26.54.43.43,0,0,0,.18.06c.86.07,1.84-1.4,2.48-2.5.29-.5.41-.66.54-.66s.3,0,.56.42a4.41,4.41,0,0,0,4.33,1.87c.09-.21-.31-.39-.57-.52,0,0-.92-.74.26-1.08s1.75.17,2.75-.65c0-.26-.52-.4-.52-.4s-.7-.43,1.35-1c1-.27,1-.44.84-.57S96,95.27,96.66,94.79Z"/><path class="cls-2" d="M55.4,88.5h2.3v21.89H53.84l-7.15-23.2H43.3c-.91,3.7-6.3,20.37-6.3,20.37-.47,1.44-1.23,2.65-2.6,2.83H32.48L31.17,88.5H34V87.19H26.28l-4.66,13c-1.53-4.31-3.14-8.72-4.59-13H8.89V88.5c2.52,0,2.7.4,2.7,2.82v.25c-.21,4.34-.69,12.41-1,17-.07,1-.91,1.85-3.09,1.95v1.2h8.63v-1.27c-3.09-.07-3.57-1.12-3.57-1.88,0-.43.11-3.62.22-6.66.15-4.23.29-7,.43-11.28v.18c2.09,5.86,4.31,11.83,6.38,17.69l.8-.36c2.05-5.54,4.05-10.86,6.13-16.36l.95,18.64H25v1.3h16.8v-1.3h-.21c-2.16-.18-2.81-.22-2.81-1.78a8.8,8.8,0,0,1,.18-1.73l1.28-4.42h5.94l2.3,7.93h-2.7v1.3H65.28v-1.3H63V88.5h2.26V87.19H55.4ZM40.64,101.16l2.59-9,2.59,9Z"/><path class="cls-2" d="M80.27,107.93c-.62,1.84-1.32,2.46-2.74,2.46H73.92c.15-.22.15-2.64.15-21.89H76.8V87.19H66.59V88.5h2.52v21.89H66.48v1.3H82.63l.55-7.81c-.55-.08-1-.08-1.53-.15Z"/><path class="cls-2" d="M48,9.62h2.52V8.32H40.55v1.3H43v10H35.55v-10h2.51V8.32H7.77l-.25,7.31c.58,0,1.05.14,1.63.17l1.29-4.62c.36-1.34.8-1.56,2.26-1.56h2.55V31.51H11.82v1.3H23.67v-1.3H20.2V9.62h2.63c1.56,0,1.82.32,2.18,1.56l1.28,4.62c.58,0,1.05-.14,1.64-.17v-6h2.66V31.51h-2.8v1.3H38.06v-1.3H35.55v-10H43v10H40.55v1.3h10v-1.3H48Z"/><path class="cls-2" d="M66.46,29.08c-.51,1.63-1.31,2.43-2.63,2.43H58.88c0-.83,0-3.33,0-5.57,0-1.42,0-4,0-4.38h6.31v-2H59V9.62h3.86a2.12,2.12,0,0,1,2.34,1.77l1.27,4.31c.55-.07,1-.07,1.61-.15V8.32H51.7v1.3H54V31.51H51.68v1.3H68.83l.26-7.56L67.48,25Z"/><path class="cls-2" d="M18.74,50.62h2.51v6.73a9.45,9.45,0,0,1-2.73.51c-3.43,0-5.73-2.57-5.73-11.23,0-5.68,1.46-10.79,5.66-10.79,3.06,0,4.16,2.61,5.25,6.74l1.75-.4V35.66c-.73-.47-3-1.41-7.08-1.41-6.78,0-10.9,6.66-10.9,13.07,0,8.29,4.74,12.27,10.76,12.27a22,22,0,0,0,5.58-1.08l2.26-.18v-9H18.74Z"/><path class="cls-2" d="M41.21,55.4c-.62,1.84-1.31,2.46-2.74,2.46H34.86C35,57.64,35,55.21,35,36h2.73v-1.3H27.53V36h2.52V57.86H27.42v1.31H43.58l.55-7.83c-.55-.07-1-.07-1.53-.15Z"/><path class="cls-2" d="M55.21,34.25c-7.52,0-10.81,6-10.81,13,0,8.3,4.46,12.38,10.81,12.38,7.52,0,10.85-6,10.85-13C66.06,38.85,62,34.25,55.21,34.25Zm0,23.65C52.89,57.9,50,56,50,46.88,50,38.59,52.11,36,55.21,36c2.1,0,5.27,1.3,5.27,11C60.48,55.69,57.89,57.9,55.21,57.9Z"/><path class="cls-2" d="M78.9,46.63v-.21c2.74-.8,4.74-3.41,4.74-5.44,0-3.95-2.73-6.33-7.91-6.33H65.55V36h2.59V57.86H65.55v1.31H75.94c5.18,0,8.25-2.65,8.25-6.45A6.44,6.44,0,0,0,78.9,46.63ZM73.13,36h2.56c1.82,0,3.24,1.45,3.24,5.4,0,2.39-1,4.45-2.73,4.45H73.13ZM76,57.86H73.49c-.35,0-.35-.33-.35-.83V47.32H76c2.38,0,3.11,2.28,3.11,5.36C79.12,56.92,77.69,57.86,76,57.86Z"/><path class="cls-2" d="M100.31,55.43c-.51,1.63-1.31,2.43-2.62,2.43h-5c0-.83,0-3.33,0-5.58,0-1.41,0-4,0-4.38h6.31v-2H92.8V36h3.86A2.11,2.11,0,0,1,99,37.72L100.28,42c.54-.07,1-.07,1.6-.15V34.65H85.54V36h2.3V57.86H84.7v1.31h18l.26-7.58-1.6-.29Z"/><path d="M135.52.42h9.18c3,0,5.17.78,6.53,2.33s2,3.8,2,6.74v1.78a10.6,10.6,0,0,1-2,6.91c-1.35,1.66-3.53,2.49-6.52,2.49H142V34.61h-6.43ZM142,15.73h2.35a2,2,0,0,0,1.92-1.05,5.64,5.64,0,0,0,.62-2.84v-3q0-3.48-2.54-3.48H142Z"/><path d="M154.58,8.64A9.7,9.7,0,0,1,155.24,5a7.53,7.53,0,0,1,1.86-2.73A8,8,0,0,1,159.94.56,11.2,11.2,0,0,1,163.55,0h.38a11.13,11.13,0,0,1,3.57.56,8.06,8.06,0,0,1,2.84,1.67A7.7,7.7,0,0,1,172.22,5a9.5,9.5,0,0,1,.68,3.68V26.4a9.33,9.33,0,0,1-.68,3.66,7.76,7.76,0,0,1-1.88,2.7,8.1,8.1,0,0,1-2.84,1.69,10.61,10.61,0,0,1-3.57.59h-.38a10.68,10.68,0,0,1-3.61-.59,8,8,0,0,1-2.84-1.69,7.58,7.58,0,0,1-1.86-2.7,9.52,9.52,0,0,1-.66-3.66Zm11.89-.09A3.64,3.64,0,0,0,165.72,6a2.48,2.48,0,0,0-1.84-.78h-.23a2.5,2.5,0,0,0-1.88.78A3.59,3.59,0,0,0,161,8.55V26.49a3.61,3.61,0,0,0,.75,2.56,2.5,2.5,0,0,0,1.88.77h.23a2.47,2.47,0,0,0,1.84-.77,3.66,3.66,0,0,0,.75-2.56Z"/><path d="M203.38.42l-3.33,34.19h-8.64l-3-25.45-3,25.45h-8.5L173.37.42h6.39l1.88,27,3.42-27h7l3.38,27,1.88-27Z"/><path d="M204.88,34.61V.42h13.44V5.54h-7v7.61h6.53v5.12h-6.53V29.49h7v5.12Z"/><path d="M226.82,34.61h-6.44V.42h9.89q4.11,0,6,2.3a9.32,9.32,0,0,1,1.88,6.06v.75a9.14,9.14,0,0,1-1,4.51,5.16,5.16,0,0,1-3.08,2.4,4.49,4.49,0,0,1,3,1.85,7.21,7.21,0,0,1,.89,3.88V34.61h-6.44V22.08a2.69,2.69,0,0,0-.58-1.95,2.24,2.24,0,0,0-1.67-.59h-2.44Zm2.44-20a2,2,0,0,0,1.88-1,5.6,5.6,0,0,0,.56-2.67V8.78c0-2.28-.83-3.43-2.49-3.43h-2.39v9.26Z"/><path d="M135.52,85.35H142v34.19h-6.43Z"/><path d="M150.92,101.32l-1.41-5.82.1,6.1v17.94H144.2V85.35h7.94l5,18.74,1.32,5.4-.1-5.82V85.35h5.4v34.19h-7.89Z"/><path d="M172.38,103.39v16.15H166V85.35h13.43v5.12h-7v7.8H179v5.12Z"/><path d="M180.46,93.57a9.71,9.71,0,0,1,.66-3.69A7.59,7.59,0,0,1,183,87.16a8,8,0,0,1,2.85-1.67,11.2,11.2,0,0,1,3.61-.56h.38a11.13,11.13,0,0,1,3.57.56,8,8,0,0,1,2.84,1.67,7.79,7.79,0,0,1,1.88,2.72,9.52,9.52,0,0,1,.68,3.69v17.75a9.38,9.38,0,0,1-.68,3.67,7.9,7.9,0,0,1-1.88,2.7,8.35,8.35,0,0,1-2.84,1.69,10.61,10.61,0,0,1-3.57.59h-.38a10.68,10.68,0,0,1-3.61-.59,8.3,8.3,0,0,1-2.85-1.69,7.69,7.69,0,0,1-1.85-2.7,9.57,9.57,0,0,1-.66-3.67Zm11.88-.09a3.59,3.59,0,0,0-.75-2.56,2.44,2.44,0,0,0-1.83-.78h-.23a2.49,2.49,0,0,0-1.88.78,3.59,3.59,0,0,0-.75,2.56v17.94a3.61,3.61,0,0,0,.75,2.56,2.52,2.52,0,0,0,1.88.77h.23a2.47,2.47,0,0,0,1.83-.77,3.61,3.61,0,0,0,.75-2.56Z"/><path d="M207.09,119.54h-6.43V85.35h9.88q4.13,0,6,2.3a9.32,9.32,0,0,1,1.87,6.06v.75a9.16,9.16,0,0,1-1,4.51,5.13,5.13,0,0,1-3.08,2.4,4.54,4.54,0,0,1,3,1.85,7.22,7.22,0,0,1,.88,3.88v12.44h-6.43V107a2.72,2.72,0,0,0-.59-2,2.26,2.26,0,0,0-1.67-.58h-2.44Zm2.44-20a2,2,0,0,0,1.88-1,5.52,5.52,0,0,0,.57-2.68V93.71c0-2.28-.84-3.43-2.49-3.43h-2.4v9.26Z"/><path d="M225.64,91.69v27.85h-5.49V85.35h9.58l3.1,24.75,2.91-24.75h9.58v34.19h-5.63V91.65l-3.62,27.89h-6.72Z"/><path d="M247.53,119.54V85.35H261v5.12h-7v7.61h6.53v5.12H254v11.22h7v5.12Z"/><path d="M272.28,85.35q4.37,0,6.48,2.49a10.42,10.42,0,0,1,2.11,7v15.5q0,4.41-2.11,6.83c-1.41,1.62-3.57,2.42-6.48,2.42h-9.53V85.35Zm-.42,29.26a2.2,2.2,0,0,0,1.9-1,4.57,4.57,0,0,0,.68-2.66V93.85a4.45,4.45,0,0,0-.68-2.6,2.18,2.18,0,0,0-1.9-1h-2.68v24.33Z"/><path d="M147,48.25V77.09h-6.43V48.25h-5V42.89H152v5.36Z"/><path d="M152.89,51.11a9.7,9.7,0,0,1,.66-3.68,7.53,7.53,0,0,1,1.86-2.73A7.8,7.8,0,0,1,158.25,43a10.93,10.93,0,0,1,3.61-.57h.38a10.86,10.86,0,0,1,3.57.57,8,8,0,0,1,2.84,1.66,7.83,7.83,0,0,1,1.88,2.73,9.5,9.5,0,0,1,.68,3.68V68.87a9.3,9.3,0,0,1-.68,3.66,7.71,7.71,0,0,1-1.88,2.7,8.19,8.19,0,0,1-2.84,1.69,10.61,10.61,0,0,1-3.57.59h-.38a10.68,10.68,0,0,1-3.61-.59,8,8,0,0,1-2.84-1.69,7.41,7.41,0,0,1-1.86-2.7,9.48,9.48,0,0,1-.66-3.66ZM164.77,51a3.61,3.61,0,0,0-.75-2.56,2.43,2.43,0,0,0-1.83-.77H162a2.5,2.5,0,0,0-1.88.77,3.61,3.61,0,0,0-.75,2.56V69a3.61,3.61,0,0,0,.75,2.56,2.5,2.5,0,0,0,1.88.78h.23a2.44,2.44,0,0,0,1.83-.78,3.61,3.61,0,0,0,.75-2.56Z"/><path d="M191.39,48.24V77.08H185V48.24h-5V42.89h16.34v5.35Z"/><path d="M209.61,61.49h-5.45V77.08h-6.43V42.89h6.43V56.13h5.45V42.89h6.44V77.08h-6.44Z"/><path d="M218.08,77.08V42.89h13.43V48h-7v7.61H231v5.12h-6.53V72h7v5.12Z"/></g></g></svg>